#!OML:ASF I:\Actors\actors\Patient Classification 1\Patient 1\Session 1\Subject1.ASF
:FULLY-SPECIFIED
:DEGREES
408
root -0.238658 17.6432 7.55402 25.2157 -50.1269 -15.955
lowerback 7.54547 -3.29143 -8.3143
upperback -9.33472 -6.03242 -1.26944
thorax -13.9004 -2.15132 4.36995
lowerneck -9.24474 12.2959 13.4036
upperneck 16.2885 14.2942 1.43592
head 7.42862 7.74671 -0.210568
rclavicle 6.79844e-014 -3.18055e-014
rhumerus -65.7708 -16.0016 -27.928
rradius 65.4877
rwrist -11.4651
rhand -0.323656 -31.7244
rfingers 7.12502
rthumb 25.2803 -60.0694
lclavicle 6.79844e-014 -3.18055e-014
lhumerus 19.3332 31.1515 39.4006
lradius 39.2267
lwrist 17.7756
lhand -30.2005 -0.706044
lfingers 7.12502
lthumb -3.51106 29.2448
rfemur -22.4348 21.4402 23.3536
rtibia 4.16813
rfoot 8.24943 21.3615
rtoes 25.2968
lfemur 345.761 124.414 332.572
ltibia 4.05053
lfoot 239.196 -226.981
ltoes 53.1616
409
root -0.254852 17.641 7.57221 25.1263 -49.4634 -16.001
lowerback 7.50485 -3.28065 -7.82713
upperback -9.34601 -5.92581 -1.1497
thorax -13.9239 -2.14026 4.21443
lowerneck -9.26338 12.1665 13.3079
upperneck 16.4434 14.1097 1.52938
head 7.45881 7.66505 -0.184645
rclavicle -3.97569e-015 2.22639e-014
rhumerus -64.3557 -14.2056 -29.2465
rradius 71.0267
rwrist -12.4073
rhand -1.31743 -30.7881
rfingers 7.12502
rthumb 24.3279 -59.2642
lclavicle -3.97569e-015 2.22639e-014
lhumerus 14.3238 25.0061 34.693
lradius 45.1411
lwrist 21.5188
lhand -30.1712 -2.1128
lfingers 7.12502
lthumb -3.4828 27.8385
rfemur -22.1599 21.523 23.5064
rtibia 4.11862
rfoot 7.65949 20.9454
rtoes 24.8872
lfemur 345.536 124.345 332.676
ltibia 4.06914
lfoot 239.752 -227.248
ltoes 52.9812
410
root -0.272328 17.6405 7.59389 25.0528 -48.8148 -15.9397
lowerback 7.26654 -3.25627 -7.39248
upperback -9.36311 -5.79363 -1.05516
thorax -13.8309 -2.12149 4.03883
lowerneck -9.2736 12.0185 13.1983
upperneck 16.5825 13.8963 1.66026
head 7.47736 7.5716 -0.149689
rclavicle -4.57205e-014 1.27222e-014
rhumerus -62.8082 -12.3689 -30.4737
rradius 76.6057
rwrist -12.8905
rhand -1.89195 -29.9321
rfingers 7.12502
rthumb 23.777 -58.481
lclavicle -4.57205e-014 1.27222e-014
lhumerus 10.1013 19.3033 31.05
lradius 51.5206
lwrist 24.2855
lhand -30.1692 -3.82836
lfingers 7.12502
lthumb -3.48082 26.123
rfemur -22.0045 21.6513 23.5078
rtibia 4.0729
rfoot 7.06453 20.4732
rtoes 24.4279
lfemur 345.428 124.095 332.759
ltibia 4.03515
lfoot 240.102 -227.443
ltoes 52.8289
411
root -0.290619 17.6418 7.61835 24.9865 -48.1766 -15.7833
lowerback 6.82449 -3.2118 -6.98403
upperback -9.35964 -5.6262 -1.01248
thorax -13.5915 -2.09559 3.79742
lowerneck -9.27791 11.8526 13.1008
upperneck 16.682 13.6502 1.82983
head 7.47885 7.46546 -0.10969
rclavicle -6.34123e-014 -1.27222e-014
rhumerus -61.1389 -10.4538 -31.6661
rradius 82.3056
rwrist -13.1344
rhand -2.13465 -29.3079
rfingers 7.12502
rthumb 23.5442 -57.8868
lclavicle -6.34123e-014 -1.27222e-014
lhumerus 6.52065 14.1139 28.1933
lradius 58.2487
lwrist 26.3588
lhand -30.1941 -5.71518
lfingers 7.12502
lthumb -3.50487 24.2357
rfemur -21.9468 21.8084 23.3788
rtibia 4.03157
rfoot 6.46932 19.957
rtoes 23.9237
lfemur 345.444 123.73 332.844
ltibia 3.95553
lfoot 240.333 -227.587
ltoes 52.6985
412
root -0.307006 17.6436 7.64191 24.8502 -47.5135 -15.5458
lowerback 6.3575 -3.13939 -6.608
upperback -9.33147 -5.42995 -1.01213
thorax -13.3116 -2.0562 3.52134
lowerneck -9.29272 11.6551 12.9978
upperneck 16.7542 13.3527 2.04028
head 7.46793 7.3372 -0.0622577
rclavicle 4.41302e-014 5.08889e-014
rhumerus -59.3439 -8.42019 -32.789
rradius 87.9595
rwrist -13.2372
rhand -2.13669 -28.7775
rfingers 7.12502
rthumb 23.5423 -57.3567
lclavicle 4.41302e-014 5.08889e-014
lhumerus 3.45319 9.37705 25.9195
lradius 65.2094
lwrist 28.0251
lhand -30.208 -7.64258
lfingers 7.12502
lthumb -3.51835 22.3081
rfemur -21.8976 21.9799 23.1724
rtibia 3.99918
rfoot 5.84787 19.3854
rtoes 23.3143
lfemur 345.573 123.463 332.978
ltibia 3.86155
lfoot 240.756 -227.8
ltoes 52.5474
413
root -0.322196 17.6448 7.6649 24.7215 -46.7775 -15.3689
lowerback 5.89312 -3.03934 -6.16139
upperback -9.27834 -5.19039 -1.02192
thorax -13.0128 -2.00255 3.1902
lowerneck -9.35621 11.418 12.8589
upperneck 16.8457 12.9888 2.30423
head 7.46325 7.18011 0.00311053
rclavicle -8.94531e-015 9.54166e-015
rhumerus -57.4261 -6.21437 -33.8269
rradius 93.4387
rwrist -13.2355
rhand -2.03189 -28.1696
rfingers 7.12502
rthumb 23.6428 -56.7358
lclavicle -8.94531e-015 9.54166e-015
lhumerus 0.814007 4.97257 24.0687
lradius 72.2987
lwrist 29.509
lhand -30.1608 -9.52446
lfingers 7.12502
lthumb -3.47279 20.427
rfemur -21.7988 22.1482 23.0412
rtibia 3.96435
rfoot 5.20188 18.779
rtoes 22.6212
lfemur 345.724 123.301 333.214
ltibia 3.79123
lfoot 241.368 -228.097
ltoes 52.3659
